<!-- frontend/src/components/diagramstudio/diagrams/flowchart.svg -->
<svg style="width: 100%; height: 100%; display: block;" viewBox="-38.47352600097656 20 955.9087982177734 1022" width="955.9087982177734" height="1022" xmlns="http://www.w3.org/2000/svg"><style>text{font-family:system-ui,sans-serif}.node-label{font-weight:500}</style><rect x="-38.47352600097656" y="20" width="955.9087982177734" height="1022" fill="#ffffff"/><defs><pattern id="elkgrid" width="48" height="48" patternUnits="userSpaceOnUse"><line x1="0" y1="0" x2="0" y2="48" stroke="#00000018" stroke-width="0.5"/><line x1="0" y1="0" x2="48" y2="0" stroke="#00000018" stroke-width="0.5"/></pattern><filter id="nodeglow" x="-60%" y="-60%" width="220%" height="220%"><feGaussianBlur in="SourceGraphic" stdDeviation="3" result="blur"/><feMerge><feMergeNode in="blur"/><feMergeNode in="SourceGraphic"/></feMerge></filter><filter id="nodeglow-subtle" x="-60%" y="-60%" width="220%" height="220%"><feGaussianBlur in="SourceGraphic" stdDeviation="3" result="blur"/><feMerge><feMergeNode in="blur"/><feMergeNode in="SourceGraphic"/></feMerge></filter><filter id="nodeglow-neon" x="-60%" y="-60%" width="220%" height="220%"><feGaussianBlur in="SourceGraphic" stdDeviation="7" result="blur"/><feFlood flood-color="#00d4ff" flood-opacity="0.85" result="color"/><feComposite in="color" in2="blur" operator="in" result="coloredGlow"/><feGaussianBlur in="coloredGlow" stdDeviation="3" result="outerGlow"/><feMerge><feMergeNode in="outerGlow"/><feMergeNode in="coloredGlow"/><feMergeNode in="SourceGraphic"/></feMerge></filter><filter id="nodeglow-cyber" x="-70%" y="-70%" width="240%" height="240%"><feGaussianBlur in="SourceGraphic" stdDeviation="5" result="blurMag"/><feFlood flood-color="#ff00ff" flood-opacity="0.9" result="colorMag"/><feComposite in="colorMag" in2="blurMag" operator="in" result="glowMag"/><feGaussianBlur in="SourceGraphic" stdDeviation="10" result="blurCyan"/><feFlood flood-color="#00ffff" flood-opacity="0.6" result="colorCyan"/><feComposite in="colorCyan" in2="blurCyan" operator="in" result="glowCyan"/><feMerge><feMergeNode in="glowCyan"/><feMergeNode in="glowMag"/><feMergeNode in="SourceGraphic"/></feMerge></filter><filter id="dropshadow" x="-20%" y="-20%" width="140%" height="140%"><feDropShadow dx="2" dy="4" stdDeviation="5" flood-color="#00000077"/></filter><filter id="edgeglow" x="-20%" y="-100%" width="140%" height="300%"><feGaussianBlur stdDeviation="2.5" result="blur"/><feMerge><feMergeNode in="blur"/><feMergeNode in="SourceGraphic"/></feMerge></filter><filter id="portglow" x="-300%" y="-300%" width="700%" height="700%"><feGaussianBlur stdDeviation="3" result="blur"/><feMerge><feMergeNode in="blur"/><feMergeNode in="SourceGraphic"/></feMerge></filter><marker id="arr-directed-right-triangle-fwd" viewBox="0 0 10 10" refY="5" markerWidth="6" markerHeight="6" orient="auto" refX="9"><polygon points="1,2 9,5 1,8" fill="#4d9ef7"/></marker><marker id="arr-directed-right-triangle-rev" viewBox="0 0 10 10" refY="5" markerWidth="6" markerHeight="6" orient="auto-start-reverse" refX="1"><polygon points="1,2 9,5 1,8" fill="#4d9ef7"/></marker><marker id="arr-directed-right-filled-fwd" viewBox="0 0 10 10" refY="5" markerWidth="6" markerHeight="6" orient="auto" refX="9"><polygon points="1,2 9,5 1,8" fill="#4d9ef7"/></marker><marker id="arr-directed-right-filled-rev" viewBox="0 0 10 10" refY="5" markerWidth="6" markerHeight="6" orient="auto-start-reverse" refX="1"><polygon points="1,2 9,5 1,8" fill="#4d9ef7"/></marker><marker id="arr-directed-right-chevron-fwd" viewBox="0 0 10 10" refY="5" markerWidth="6" markerHeight="6" orient="auto" refX="8"><polyline points="2,2 8,5 2,8" fill="none" stroke="#4d9ef7" stroke-width="1.8" stroke-linejoin="round" stroke-linecap="round"/></marker><marker id="arr-directed-right-chevron-rev" viewBox="0 0 10 10" refY="5" markerWidth="6" markerHeight="6" orient="auto-start-reverse" refX="2"><polyline points="2,2 8,5 2,8" fill="none" stroke="#4d9ef7" stroke-width="1.8" stroke-linejoin="round" stroke-linecap="round"/></marker><marker id="arr-directed-right-open-fwd" viewBox="0 0 10 10" refY="5" markerWidth="6" markerHeight="6" orient="auto" refX="8"><polyline points="2,2 8,5 2,8" fill="none" stroke="#4d9ef7" stroke-width="1.8" stroke-linejoin="round" stroke-linecap="round"/></marker><marker id="arr-directed-right-open-rev" viewBox="0 0 10 10" refY="5" markerWidth="6" markerHeight="6" orient="auto-start-reverse" refX="2"><polyline points="2,2 8,5 2,8" fill="none" stroke="#4d9ef7" stroke-width="1.8" stroke-linejoin="round" stroke-linecap="round"/></marker><marker id="arr-directed-right-circle-fwd" viewBox="0 0 10 10" refY="5" markerWidth="6" markerHeight="6" orient="auto" refX="8"><circle cx="5" cy="5" r="2.5" fill="#4d9ef7"/></marker><marker id="arr-directed-right-circle-rev" viewBox="0 0 10 10" refY="5" markerWidth="6" markerHeight="6" orient="auto-start-reverse" refX="2"><circle cx="5" cy="5" r="2.5" fill="#4d9ef7"/></marker><marker id="arr-directed-right-diamond-fwd" viewBox="0 0 10 10" refY="5" markerWidth="6" markerHeight="6" orient="auto" refX="9"><polygon points="1,5 4,2.5 8,5 4,7.5" fill="#4d9ef7"/></marker><marker id="arr-directed-right-diamond-rev" viewBox="0 0 10 10" refY="5" markerWidth="6" markerHeight="6" orient="auto-start-reverse" refX="1"><polygon points="1,5 4,2.5 8,5 4,7.5" fill="#4d9ef7"/></marker><marker id="arr-directed-right-none-fwd" viewBox="0 0 10 10" refY="5" markerWidth="6" markerHeight="6" orient="auto" refX="5"/><marker id="arr-directed-right-none-rev" viewBox="0 0 10 10" refY="5" markerWidth="6" markerHeight="6" orient="auto-start-reverse" refX="5"/><marker id="arr-directed-right-fwd" viewBox="0 0 10 10" refX="9" refY="5" markerWidth="6" markerHeight="6" orient="auto"><polygon points="1,2 9,5 1,8" fill="#4d9ef7"/></marker><marker id="arr-directed-right-rev" viewBox="0 0 10 10" refX="1" refY="5" markerWidth="6" markerHeight="6" orient="auto-start-reverse"><polygon points="1,2 9,5 1,8" fill="#4d9ef7"/></marker><marker id="arr-directed-left-triangle-fwd" viewBox="0 0 10 10" refY="5" markerWidth="6" markerHeight="6" orient="auto" refX="9"><polygon points="1,2 9,5 1,8" fill="#a78bfa"/></marker><marker id="arr-directed-left-triangle-rev" viewBox="0 0 10 10" refY="5" markerWidth="6" markerHeight="6" orient="auto-start-reverse" refX="1"><polygon points="1,2 9,5 1,8" fill="#a78bfa"/></marker><marker id="arr-directed-left-filled-fwd" viewBox="0 0 10 10" refY="5" markerWidth="6" markerHeight="6" orient="auto" refX="9"><polygon points="1,2 9,5 1,8" fill="#a78bfa"/></marker><marker id="arr-directed-left-filled-rev" viewBox="0 0 10 10" refY="5" markerWidth="6" markerHeight="6" orient="auto-start-reverse" refX="1"><polygon points="1,2 9,5 1,8" fill="#a78bfa"/></marker><marker id="arr-directed-left-chevron-fwd" viewBox="0 0 10 10" refY="5" markerWidth="6" markerHeight="6" orient="auto" refX="8"><polyline points="2,2 8,5 2,8" fill="none" stroke="#a78bfa" stroke-width="1.8" stroke-linejoin="round" stroke-linecap="round"/></marker><marker id="arr-directed-left-chevron-rev" viewBox="0 0 10 10" refY="5" markerWidth="6" markerHeight="6" orient="auto-start-reverse" refX="2"><polyline points="2,2 8,5 2,8" fill="none" stroke="#a78bfa" stroke-width="1.8" stroke-linejoin="round" stroke-linecap="round"/></marker><marker id="arr-directed-left-open-fwd" viewBox="0 0 10 10" refY="5" markerWidth="6" markerHeight="6" orient="auto" refX="8"><polyline points="2,2 8,5 2,8" fill="none" stroke="#a78bfa" stroke-width="1.8" stroke-linejoin="round" stroke-linecap="round"/></marker><marker id="arr-directed-left-open-rev" viewBox="0 0 10 10" refY="5" markerWidth="6" markerHeight="6" orient="auto-start-reverse" refX="2"><polyline points="2,2 8,5 2,8" fill="none" stroke="#a78bfa" stroke-width="1.8" stroke-linejoin="round" stroke-linecap="round"/></marker><marker id="arr-directed-left-circle-fwd" viewBox="0 0 10 10" refY="5" markerWidth="6" markerHeight="6" orient="auto" refX="8"><circle cx="5" cy="5" r="2.5" fill="#a78bfa"/></marker><marker id="arr-directed-left-circle-rev" viewBox="0 0 10 10" refY="5" markerWidth="6" markerHeight="6" orient="auto-start-reverse" refX="2"><circle cx="5" cy="5" r="2.5" fill="#a78bfa"/></marker><marker id="arr-directed-left-diamond-fwd" viewBox="0 0 10 10" refY="5" markerWidth="6" markerHeight="6" orient="auto" refX="9"><polygon points="1,5 4,2.5 8,5 4,7.5" fill="#a78bfa"/></marker><marker id="arr-directed-left-diamond-rev" viewBox="0 0 10 10" refY="5" markerWidth="6" markerHeight="6" orient="auto-start-reverse" refX="1"><polygon points="1,5 4,2.5 8,5 4,7.5" fill="#a78bfa"/></marker><marker id="arr-directed-left-none-fwd" viewBox="0 0 10 10" refY="5" markerWidth="6" markerHeight="6" orient="auto" refX="5"/><marker id="arr-directed-left-none-rev" viewBox="0 0 10 10" refY="5" markerWidth="6" markerHeight="6" orient="auto-start-reverse" refX="5"/><marker id="arr-directed-left-fwd" viewBox="0 0 10 10" refX="9" refY="5" markerWidth="6" markerHeight="6" orient="auto"><polygon points="1,2 9,5 1,8" fill="#a78bfa"/></marker><marker id="arr-directed-left-rev" viewBox="0 0 10 10" refX="1" refY="5" markerWidth="6" markerHeight="6" orient="auto-start-reverse"><polygon points="1,2 9,5 1,8" fill="#a78bfa"/></marker><marker id="arr-undirected-triangle-fwd" viewBox="0 0 10 10" refY="5" markerWidth="6" markerHeight="6" orient="auto" refX="9"><polygon points="1,2 9,5 1,8" fill="#94a3b8"/></marker><marker id="arr-undirected-triangle-rev" viewBox="0 0 10 10" refY="5" markerWidth="6" markerHeight="6" orient="auto-start-reverse" refX="1"><polygon points="1,2 9,5 1,8" fill="#94a3b8"/></marker><marker id="arr-undirected-filled-fwd" viewBox="0 0 10 10" refY="5" markerWidth="6" markerHeight="6" orient="auto" refX="9"><polygon points="1,2 9,5 1,8" fill="#94a3b8"/></marker><marker id="arr-undirected-filled-rev" viewBox="0 0 10 10" refY="5" markerWidth="6" markerHeight="6" orient="auto-start-reverse" refX="1"><polygon points="1,2 9,5 1,8" fill="#94a3b8"/></marker><marker id="arr-undirected-chevron-fwd" viewBox="0 0 10 10" refY="5" markerWidth="6" markerHeight="6" orient="auto" refX="8"><polyline points="2,2 8,5 2,8" fill="none" stroke="#94a3b8" stroke-width="1.8" stroke-linejoin="round" stroke-linecap="round"/></marker><marker id="arr-undirected-chevron-rev" viewBox="0 0 10 10" refY="5" markerWidth="6" markerHeight="6" orient="auto-start-reverse" refX="2"><polyline points="2,2 8,5 2,8" fill="none" stroke="#94a3b8" stroke-width="1.8" stroke-linejoin="round" stroke-linecap="round"/></marker><marker id="arr-undirected-open-fwd" viewBox="0 0 10 10" refY="5" markerWidth="6" markerHeight="6" orient="auto" refX="8"><polyline points="2,2 8,5 2,8" fill="none" stroke="#94a3b8" stroke-width="1.8" stroke-linejoin="round" stroke-linecap="round"/></marker><marker id="arr-undirected-open-rev" viewBox="0 0 10 10" refY="5" markerWidth="6" markerHeight="6" orient="auto-start-reverse" refX="2"><polyline points="2,2 8,5 2,8" fill="none" stroke="#94a3b8" stroke-width="1.8" stroke-linejoin="round" stroke-linecap="round"/></marker><marker id="arr-undirected-circle-fwd" viewBox="0 0 10 10" refY="5" markerWidth="6" markerHeight="6" orient="auto" refX="8"><circle cx="5" cy="5" r="2.5" fill="#94a3b8"/></marker><marker id="arr-undirected-circle-rev" viewBox="0 0 10 10" refY="5" markerWidth="6" markerHeight="6" orient="auto-start-reverse" refX="2"><circle cx="5" cy="5" r="2.5" fill="#94a3b8"/></marker><marker id="arr-undirected-diamond-fwd" viewBox="0 0 10 10" refY="5" markerWidth="6" markerHeight="6" orient="auto" refX="9"><polygon points="1,5 4,2.5 8,5 4,7.5" fill="#94a3b8"/></marker><marker id="arr-undirected-diamond-rev" viewBox="0 0 10 10" refY="5" markerWidth="6" markerHeight="6" orient="auto-start-reverse" refX="1"><polygon points="1,5 4,2.5 8,5 4,7.5" fill="#94a3b8"/></marker><marker id="arr-undirected-none-fwd" viewBox="0 0 10 10" refY="5" markerWidth="6" markerHeight="6" orient="auto" refX="5"/><marker id="arr-undirected-none-rev" viewBox="0 0 10 10" refY="5" markerWidth="6" markerHeight="6" orient="auto-start-reverse" refX="5"/><marker id="arr-undirected-fwd" viewBox="0 0 10 10" refX="9" refY="5" markerWidth="6" markerHeight="6" orient="auto"><polygon points="1,2 9,5 1,8" fill="#94a3b8"/></marker><marker id="arr-undirected-rev" viewBox="0 0 10 10" refX="1" refY="5" markerWidth="6" markerHeight="6" orient="auto-start-reverse"><polygon points="1,2 9,5 1,8" fill="#94a3b8"/></marker><marker id="arr-dashed-undirected-triangle-fwd" viewBox="0 0 10 10" refY="5" markerWidth="6" markerHeight="6" orient="auto" refX="9"><polygon points="1,2 9,5 1,8" fill="#64748b"/></marker><marker id="arr-dashed-undirected-triangle-rev" viewBox="0 0 10 10" refY="5" markerWidth="6" markerHeight="6" orient="auto-start-reverse" refX="1"><polygon points="1,2 9,5 1,8" fill="#64748b"/></marker><marker id="arr-dashed-undirected-filled-fwd" viewBox="0 0 10 10" refY="5" markerWidth="6" markerHeight="6" orient="auto" refX="9"><polygon points="1,2 9,5 1,8" fill="#64748b"/></marker><marker id="arr-dashed-undirected-filled-rev" viewBox="0 0 10 10" refY="5" markerWidth="6" markerHeight="6" orient="auto-start-reverse" refX="1"><polygon points="1,2 9,5 1,8" fill="#64748b"/></marker><marker id="arr-dashed-undirected-chevron-fwd" viewBox="0 0 10 10" refY="5" markerWidth="6" markerHeight="6" orient="auto" refX="8"><polyline points="2,2 8,5 2,8" fill="none" stroke="#64748b" stroke-width="1.8" stroke-linejoin="round" stroke-linecap="round"/></marker><marker id="arr-dashed-undirected-chevron-rev" viewBox="0 0 10 10" refY="5" markerWidth="6" markerHeight="6" orient="auto-start-reverse" refX="2"><polyline points="2,2 8,5 2,8" fill="none" stroke="#64748b" stroke-width="1.8" stroke-linejoin="round" stroke-linecap="round"/></marker><marker id="arr-dashed-undirected-open-fwd" viewBox="0 0 10 10" refY="5" markerWidth="6" markerHeight="6" orient="auto" refX="8"><polyline points="2,2 8,5 2,8" fill="none" stroke="#64748b" stroke-width="1.8" stroke-linejoin="round" stroke-linecap="round"/></marker><marker id="arr-dashed-undirected-open-rev" viewBox="0 0 10 10" refY="5" markerWidth="6" markerHeight="6" orient="auto-start-reverse" refX="2"><polyline points="2,2 8,5 2,8" fill="none" stroke="#64748b" stroke-width="1.8" stroke-linejoin="round" stroke-linecap="round"/></marker><marker id="arr-dashed-undirected-circle-fwd" viewBox="0 0 10 10" refY="5" markerWidth="6" markerHeight="6" orient="auto" refX="8"><circle cx="5" cy="5" r="2.5" fill="#64748b"/></marker><marker id="arr-dashed-undirected-circle-rev" viewBox="0 0 10 10" refY="5" markerWidth="6" markerHeight="6" orient="auto-start-reverse" refX="2"><circle cx="5" cy="5" r="2.5" fill="#64748b"/></marker><marker id="arr-dashed-undirected-diamond-fwd" viewBox="0 0 10 10" refY="5" markerWidth="6" markerHeight="6" orient="auto" refX="9"><polygon points="1,5 4,2.5 8,5 4,7.5" fill="#64748b"/></marker><marker id="arr-dashed-undirected-diamond-rev" viewBox="0 0 10 10" refY="5" markerWidth="6" markerHeight="6" orient="auto-start-reverse" refX="1"><polygon points="1,5 4,2.5 8,5 4,7.5" fill="#64748b"/></marker><marker id="arr-dashed-undirected-none-fwd" viewBox="0 0 10 10" refY="5" markerWidth="6" markerHeight="6" orient="auto" refX="5"/><marker id="arr-dashed-undirected-none-rev" viewBox="0 0 10 10" refY="5" markerWidth="6" markerHeight="6" orient="auto-start-reverse" refX="5"/><marker id="arr-dashed-undirected-fwd" viewBox="0 0 10 10" refX="9" refY="5" markerWidth="6" markerHeight="6" orient="auto"><polygon points="1,2 9,5 1,8" fill="#64748b"/></marker><marker id="arr-dashed-undirected-rev" viewBox="0 0 10 10" refX="1" refY="5" markerWidth="6" markerHeight="6" orient="auto-start-reverse"><polygon points="1,2 9,5 1,8" fill="#64748b"/></marker><marker id="arr-dashed-right-triangle-fwd" viewBox="0 0 10 10" refY="5" markerWidth="6" markerHeight="6" orient="auto" refX="9"><polygon points="1,2 9,5 1,8" fill="#34d399"/></marker><marker id="arr-dashed-right-triangle-rev" viewBox="0 0 10 10" refY="5" markerWidth="6" markerHeight="6" orient="auto-start-reverse" refX="1"><polygon points="1,2 9,5 1,8" fill="#34d399"/></marker><marker id="arr-dashed-right-filled-fwd" viewBox="0 0 10 10" refY="5" markerWidth="6" markerHeight="6" orient="auto" refX="9"><polygon points="1,2 9,5 1,8" fill="#34d399"/></marker><marker id="arr-dashed-right-filled-rev" viewBox="0 0 10 10" refY="5" markerWidth="6" markerHeight="6" orient="auto-start-reverse" refX="1"><polygon points="1,2 9,5 1,8" fill="#34d399"/></marker><marker id="arr-dashed-right-chevron-fwd" viewBox="0 0 10 10" refY="5" markerWidth="6" markerHeight="6" orient="auto" refX="8"><polyline points="2,2 8,5 2,8" fill="none" stroke="#34d399" stroke-width="1.8" stroke-linejoin="round" stroke-linecap="round"/></marker><marker id="arr-dashed-right-chevron-rev" viewBox="0 0 10 10" refY="5" markerWidth="6" markerHeight="6" orient="auto-start-reverse" refX="2"><polyline points="2,2 8,5 2,8" fill="none" stroke="#34d399" stroke-width="1.8" stroke-linejoin="round" stroke-linecap="round"/></marker><marker id="arr-dashed-right-open-fwd" viewBox="0 0 10 10" refY="5" markerWidth="6" markerHeight="6" orient="auto" refX="8"><polyline points="2,2 8,5 2,8" fill="none" stroke="#34d399" stroke-width="1.8" stroke-linejoin="round" stroke-linecap="round"/></marker><marker id="arr-dashed-right-open-rev" viewBox="0 0 10 10" refY="5" markerWidth="6" markerHeight="6" orient="auto-start-reverse" refX="2"><polyline points="2,2 8,5 2,8" fill="none" stroke="#34d399" stroke-width="1.8" stroke-linejoin="round" stroke-linecap="round"/></marker><marker id="arr-dashed-right-circle-fwd" viewBox="0 0 10 10" refY="5" markerWidth="6" markerHeight="6" orient="auto" refX="8"><circle cx="5" cy="5" r="2.5" fill="#34d399"/></marker><marker id="arr-dashed-right-circle-rev" viewBox="0 0 10 10" refY="5" markerWidth="6" markerHeight="6" orient="auto-start-reverse" refX="2"><circle cx="5" cy="5" r="2.5" fill="#34d399"/></marker><marker id="arr-dashed-right-diamond-fwd" viewBox="0 0 10 10" refY="5" markerWidth="6" markerHeight="6" orient="auto" refX="9"><polygon points="1,5 4,2.5 8,5 4,7.5" fill="#34d399"/></marker><marker id="arr-dashed-right-diamond-rev" viewBox="0 0 10 10" refY="5" markerWidth="6" markerHeight="6" orient="auto-start-reverse" refX="1"><polygon points="1,5 4,2.5 8,5 4,7.5" fill="#34d399"/></marker><marker id="arr-dashed-right-none-fwd" viewBox="0 0 10 10" refY="5" markerWidth="6" markerHeight="6" orient="auto" refX="5"/><marker id="arr-dashed-right-none-rev" viewBox="0 0 10 10" refY="5" markerWidth="6" markerHeight="6" orient="auto-start-reverse" refX="5"/><marker id="arr-dashed-right-fwd" viewBox="0 0 10 10" refX="9" refY="5" markerWidth="6" markerHeight="6" orient="auto"><polygon points="1,2 9,5 1,8" fill="#34d399"/></marker><marker id="arr-dashed-right-rev" viewBox="0 0 10 10" refX="1" refY="5" markerWidth="6" markerHeight="6" orient="auto-start-reverse"><polygon points="1,2 9,5 1,8" fill="#34d399"/></marker><marker id="arr-dashed-left-triangle-fwd" viewBox="0 0 10 10" refY="5" markerWidth="6" markerHeight="6" orient="auto" refX="9"><polygon points="1,2 9,5 1,8" fill="#fb923c"/></marker><marker id="arr-dashed-left-triangle-rev" viewBox="0 0 10 10" refY="5" markerWidth="6" markerHeight="6" orient="auto-start-reverse" refX="1"><polygon points="1,2 9,5 1,8" fill="#fb923c"/></marker><marker id="arr-dashed-left-filled-fwd" viewBox="0 0 10 10" refY="5" markerWidth="6" markerHeight="6" orient="auto" refX="9"><polygon points="1,2 9,5 1,8" fill="#fb923c"/></marker><marker id="arr-dashed-left-filled-rev" viewBox="0 0 10 10" refY="5" markerWidth="6" markerHeight="6" orient="auto-start-reverse" refX="1"><polygon points="1,2 9,5 1,8" fill="#fb923c"/></marker><marker id="arr-dashed-left-chevron-fwd" viewBox="0 0 10 10" refY="5" markerWidth="6" markerHeight="6" orient="auto" refX="8"><polyline points="2,2 8,5 2,8" fill="none" stroke="#fb923c" stroke-width="1.8" stroke-linejoin="round" stroke-linecap="round"/></marker><marker id="arr-dashed-left-chevron-rev" viewBox="0 0 10 10" refY="5" markerWidth="6" markerHeight="6" orient="auto-start-reverse" refX="2"><polyline points="2,2 8,5 2,8" fill="none" stroke="#fb923c" stroke-width="1.8" stroke-linejoin="round" stroke-linecap="round"/></marker><marker id="arr-dashed-left-open-fwd" viewBox="0 0 10 10" refY="5" markerWidth="6" markerHeight="6" orient="auto" refX="8"><polyline points="2,2 8,5 2,8" fill="none" stroke="#fb923c" stroke-width="1.8" stroke-linejoin="round" stroke-linecap="round"/></marker><marker id="arr-dashed-left-open-rev" viewBox="0 0 10 10" refY="5" markerWidth="6" markerHeight="6" orient="auto-start-reverse" refX="2"><polyline points="2,2 8,5 2,8" fill="none" stroke="#fb923c" stroke-width="1.8" stroke-linejoin="round" stroke-linecap="round"/></marker><marker id="arr-dashed-left-circle-fwd" viewBox="0 0 10 10" refY="5" markerWidth="6" markerHeight="6" orient="auto" refX="8"><circle cx="5" cy="5" r="2.5" fill="#fb923c"/></marker><marker id="arr-dashed-left-circle-rev" viewBox="0 0 10 10" refY="5" markerWidth="6" markerHeight="6" orient="auto-start-reverse" refX="2"><circle cx="5" cy="5" r="2.5" fill="#fb923c"/></marker><marker id="arr-dashed-left-diamond-fwd" viewBox="0 0 10 10" refY="5" markerWidth="6" markerHeight="6" orient="auto" refX="9"><polygon points="1,5 4,2.5 8,5 4,7.5" fill="#fb923c"/></marker><marker id="arr-dashed-left-diamond-rev" viewBox="0 0 10 10" refY="5" markerWidth="6" markerHeight="6" orient="auto-start-reverse" refX="1"><polygon points="1,5 4,2.5 8,5 4,7.5" fill="#fb923c"/></marker><marker id="arr-dashed-left-none-fwd" viewBox="0 0 10 10" refY="5" markerWidth="6" markerHeight="6" orient="auto" refX="5"/><marker id="arr-dashed-left-none-rev" viewBox="0 0 10 10" refY="5" markerWidth="6" markerHeight="6" orient="auto-start-reverse" refX="5"/><marker id="arr-dashed-left-fwd" viewBox="0 0 10 10" refX="9" refY="5" markerWidth="6" markerHeight="6" orient="auto"><polygon points="1,2 9,5 1,8" fill="#fb923c"/></marker><marker id="arr-dashed-left-rev" viewBox="0 0 10 10" refX="1" refY="5" markerWidth="6" markerHeight="6" orient="auto-start-reverse"><polygon points="1,2 9,5 1,8" fill="#fb923c"/></marker><marker id="arr-ghost" viewBox="0 0 10 10" refX="9" refY="5" markerWidth="6" markerHeight="6" orient="auto"><path d="M2 2L8 5L2 8" fill="none" stroke="#60a5fa" stroke-width="1.5" stroke-linecap="round" stroke-linejoin="round"/></marker><marker id="arr-lane-f59e0b-triangle-fwd" viewBox="0 0 10 10" refY="5" markerWidth="6" markerHeight="6" orient="auto" refX="9"><polygon points="1,2 9,5 1,8" fill="#f59e0b"/></marker><marker id="arr-lane-f59e0b-triangle-rev" viewBox="0 0 10 10" refY="5" markerWidth="6" markerHeight="6" orient="auto-start-reverse" refX="1"><polygon points="1,2 9,5 1,8" fill="#f59e0b"/></marker><marker id="arr-lane-a855f7-triangle-fwd" viewBox="0 0 10 10" refY="5" markerWidth="6" markerHeight="6" orient="auto" refX="9"><polygon points="1,2 9,5 1,8" fill="#a855f7"/></marker><marker id="arr-lane-a855f7-triangle-rev" viewBox="0 0 10 10" refY="5" markerWidth="6" markerHeight="6" orient="auto-start-reverse" refX="1"><polygon points="1,2 9,5 1,8" fill="#a855f7"/></marker><marker id="arr-lane-14b8a6-triangle-fwd" viewBox="0 0 10 10" refY="5" markerWidth="6" markerHeight="6" orient="auto" refX="9"><polygon points="1,2 9,5 1,8" fill="#14b8a6"/></marker><marker id="arr-lane-14b8a6-triangle-rev" viewBox="0 0 10 10" refY="5" markerWidth="6" markerHeight="6" orient="auto-start-reverse" refX="1"><polygon points="1,2 9,5 1,8" fill="#14b8a6"/></marker></defs><rect class="bg-base" x="0" y="0" width="100%" height="100%" fill="#fafaf8" pointer-events="none"/><g transform="translate(0,0) scale(1)"><rect class="bg-rect" x="-50000" y="-50000" width="100000" height="100000" fill="transparent" style="cursor: default;"/><rect class="bg-pattern" x="-50000" y="-50000" width="100000" height="100000" fill="url(#elkgrid)" pointer-events="none"/><g class="groups"/><g class="edges"><g data-edge="e6-1-start-frontend.browser_login" style="cursor: pointer;"><path class="edge-hit-target" d="M442.5,152 L442.5,212" fill="none" stroke="transparent" stroke-width="16" stroke-linecap="round" style="pointer-events: stroke; cursor: pointer;"/><path d="M442.5,152 L442.5,212" fill="none" stroke="#4d9ef7" stroke-width="1.8" stroke-linecap="round" marker-end="url(#arr-directed-right-triangle-fwd)" opacity="0.9"/><rect x="435.5" y="156" width="14" height="52" fill="transparent" stroke="none" class="seg-hit" style="cursor: ew-resize; pointer-events: all;"/><rect x="439.5" y="168" width="6" height="28" rx="3" fill="#4d9ef7" opacity="0" pointer-events="none" class="seg-handle"/></g><g data-edge="e7-2-frontend.browser_login-backend.auth_service" style="cursor: pointer;"><path class="edge-hit-target" d="M442.5,284 L442.5,344" fill="none" stroke="transparent" stroke-width="16" stroke-linecap="round" style="pointer-events: stroke; cursor: pointer;"/><path d="M442.5,284 L442.5,344" fill="none" stroke="#f59e0b" stroke-width="3.8" stroke-linecap="round" opacity="0.08"/><path d="M442.5,284 L442.5,344" fill="none" stroke="#f59e0b" stroke-width="1.8" stroke-linecap="round" marker-end="url(#arr-lane-f59e0b-triangle-fwd)" opacity="0.72"/><rect x="435.5" y="288" width="14" height="52" fill="transparent" stroke="none" class="seg-hit" style="cursor: ew-resize; pointer-events: all;"/><rect x="439.5" y="300" width="6" height="28" rx="3" fill="#f59e0b" opacity="0" pointer-events="none" class="seg-handle"/></g><g data-edge="e8-3-backend.auth_service-backend.valid_credentials" style="cursor: pointer;"><path class="edge-hit-target" d="M442.5,416 L442.5,476" fill="none" stroke="transparent" stroke-width="16" stroke-linecap="round" style="pointer-events: stroke; cursor: pointer;"/><path d="M442.5,416 L442.5,476" fill="none" stroke="#a855f7" stroke-width="1.8" stroke-linecap="round" marker-end="url(#arr-lane-a855f7-triangle-fwd)" opacity="0.9"/><rect x="435.5" y="420" width="14" height="52" fill="transparent" stroke="none" class="seg-hit" style="cursor: ew-resize; pointer-events: all;"/><rect x="439.5" y="432" width="6" height="28" rx="3" fill="#a855f7" opacity="0" pointer-events="none" class="seg-handle"/></g><g data-edge="e9-4-backend.valid_credentials-storage.redis_cache" style="cursor: pointer;"><path class="edge-hit-target" d="M312,537 L268.7632369995117,537 Q262.7632369995117,537 256.7632369995117,537 L213.52647399902344,537" fill="none" stroke="transparent" stroke-width="16" stroke-linecap="round" style="pointer-events: stroke; cursor: pointer;"/><path d="M312,537 L268.7632369995117,537 Q262.7632369995117,537 256.7632369995117,537 L213.52647399902344,537" fill="none" stroke="#a855f7" stroke-width="3.8" stroke-linecap="round" opacity="0.08"/><path d="M312,537 L268.7632369995117,537 Q262.7632369995117,537 256.7632369995117,537 L213.52647399902344,537" fill="none" stroke="#a855f7" stroke-width="1.8" stroke-linecap="round" marker-end="url(#arr-lane-a855f7-triangle-fwd)" opacity="0.72"/><rect class="edge-label-bg" x="273.25" y="529" width="33.5" height="16" rx="3" fill="#ffffff" stroke="none" stroke-width="0"/><text class="edge-label" x="290" y="541" text-anchor="middle" dominant-baseline="middle" font-size="10" font-weight="500" fill="#4a6a8a" font-family="system-ui,sans-serif" data-label-w="33.5" data-label-h="14">yes</text><rect x="272.7632369995117" y="530" width="35.23676300048828" height="14" fill="transparent" stroke="none" class="seg-hit" style="cursor: ns-resize; pointer-events: all;"/><rect x="276.38161849975586" y="534" width="28" height="6" rx="3" fill="#a855f7" opacity="0" pointer-events="none" class="seg-handle"/><rect x="217.52647399902344" y="530" width="47.23676300048828" height="14" fill="transparent" stroke="none" class="seg-hit" style="cursor: ns-resize; pointer-events: all;"/><rect x="227.14485549926758" y="534" width="28" height="6" rx="3" fill="#a855f7" opacity="0" pointer-events="none" class="seg-handle"/></g><g data-edge="e10-5-backend.valid_credentials-login_failed" style="cursor: pointer;"><path class="edge-hit-target" d="M573,537 L619.2176361083984,537 Q625.2176361083984,537 625.2176361083984,543 L625.2176361083984,635.994140625 Q625.2176361083984,641.994140625 631.2176361083984,641.994140625 L677.4352722167969,641.994140625" fill="none" stroke="transparent" stroke-width="16" stroke-linecap="round" style="pointer-events: stroke; cursor: pointer;"/><path d="M573,537 L619.2176361083984,537 Q625.2176361083984,537 625.2176361083984,543 L625.2176361083984,635.994140625 Q625.2176361083984,641.994140625 631.2176361083984,641.994140625 L677.4352722167969,641.994140625" fill="none" stroke="#a855f7" stroke-width="1.8" stroke-linecap="round" stroke-dasharray="6,4" marker-end="url(#arr-lane-a855f7-triangle-fwd)" opacity="0.9"/><rect class="edge-label-bg" x="581.5" y="529" width="27" height="16" rx="3" fill="#ffffff" stroke="none" stroke-width="0"/><text class="edge-label" x="595" y="541" text-anchor="middle" dominant-baseline="middle" font-size="10" font-weight="500" fill="#4a6a8a" font-family="system-ui,sans-serif" data-label-w="27" data-label-h="14">no</text><rect x="577" y="530" width="38.21763610839844" height="14" fill="transparent" stroke="none" class="seg-hit" style="cursor: ns-resize; pointer-events: all;"/><rect x="582.1088180541992" y="534" width="28" height="6" rx="3" fill="#a855f7" opacity="0" pointer-events="none" class="seg-handle"/></g><g data-edge="e11-6-storage.redis_cache-storage.postgresql" style="cursor: pointer;"><path class="edge-hit-target" d="M117.52647399902344,573 L117.52647399902344,675.5 Q117.52647399902344,681.5 123.52647399902344,681.5 L170,681.5 Q176,681.5 176,687.5 L176,790" fill="none" stroke="transparent" stroke-width="16" stroke-linecap="round" style="pointer-events: stroke; cursor: pointer;"/><path d="M117.52647399902344,573 L117.52647399902344,675.5 Q117.52647399902344,681.5 123.52647399902344,681.5 L170,681.5 Q176,681.5 176,687.5 L176,790" fill="none" stroke="#14b8a6" stroke-width="1.8" stroke-linecap="round" marker-end="url(#arr-lane-14b8a6-triangle-fwd)" opacity="0.9"/><rect x="110.52647399902344" y="577" width="14" height="94.5" fill="transparent" stroke="none" class="seg-hit" style="cursor: ew-resize; pointer-events: all;"/><rect x="114.52647399902344" y="610.25" width="6" height="28" rx="3" fill="#14b8a6" opacity="0" pointer-events="none" class="seg-handle"/></g><g data-edge="e12-7-storage.postgresql-login_success" style="cursor: pointer;"><path class="edge-hit-target" d="M176,862 L176,922" fill="none" stroke="transparent" stroke-width="16" stroke-linecap="round" style="pointer-events: stroke; cursor: pointer;"/><path d="M176,862 L176,922" fill="none" stroke="#14b8a6" stroke-width="1.8" stroke-linecap="round" marker-end="url(#arr-lane-14b8a6-triangle-fwd)" opacity="0.9"/><rect x="169" y="866" width="14" height="52" fill="transparent" stroke="none" class="seg-hit" style="cursor: ew-resize; pointer-events: all;"/><rect x="173" y="878" width="6" height="28" rx="3" fill="#14b8a6" opacity="0" pointer-events="none" class="seg-handle"/></g></g><g class="nodes"><g class="node-group" data-id="start" transform="translate(346.5,80)" style="cursor: grab;"><path class="node-body" d="M36,0 L156,0 Q192,0 192,36 Q192,72 156,72 L36,72 Q0,72 0,36 Q0,0 36,0 Z" fill="#eff6ff" stroke="#2563eb" stroke-width="1" filter="url(#dropshadow)"/><rect class="sel-ring" x="-4" y="-4" width="200" height="80" rx="16" fill="none" stroke="#3b82f6" stroke-width="2" stroke-dasharray="5 3" opacity="0"/><foreignObject x="10" y="24" width="24" height="24"><div xmlns="http://www.w3.org/1999/xhtml" style="width: 24px; height: 24px; display: flex; align-items: center; justify-content: center; color: rgb(59, 130, 246);"><svg xmlns="http://www.w3.org/2000/svg" width="100%" height="100%" viewBox="0 0 24 24"><path fill="currentColor" d="M21 16.5c0 .38-.21.71-.53.88l-7.9 4.44c-.16.12-.36.18-.57.18s-.41-.06-.57-.18l-7.9-4.44A.99.99 0 0 1 3 16.5v-9c0-.38.21-.71.53-.88l7.9-4.44c.16-.12.36-.18.57-.18s.41.06.57.18l7.9 4.44c.32.17.53.5.53.88zM12 4.15L6.04 7.5L12 10.85l5.96-3.35zM5 15.91l6 3.38v-6.71L5 9.21zm14 0v-6.7l-6 3.37v6.71z"/></svg></div></foreignObject><text class="node-label" x="44" y="30" dominant-baseline="central" text-anchor="start" font-size="13" font-weight="500" font-family="'Inter', system-ui, sans-serif" fill="#3b82f6" letter-spacing="-0.01em">Start</text></g><g class="node-group" data-id="login_success" transform="translate(80,922)" style="cursor: grab;"><path class="node-body" d="M36,0 L156,0 Q192,0 192,36 Q192,72 156,72 L36,72 Q0,72 0,36 Q0,0 36,0 Z" fill="#f0fdf4" stroke="#16a34a" stroke-width="1" filter="url(#dropshadow)"/><rect class="sel-ring" x="-4" y="-4" width="200" height="80" rx="16" fill="none" stroke="#22c55e" stroke-width="2" stroke-dasharray="5 3" opacity="0"/><foreignObject x="10" y="24" width="24" height="24"><div xmlns="http://www.w3.org/1999/xhtml" style="width: 24px; height: 24px; display: flex; align-items: center; justify-content: center; color: rgb(34, 197, 94);"><svg xmlns="http://www.w3.org/2000/svg" width="100%" height="100%" viewBox="0 0 24 24"><path fill="currentColor" d="M12 1L3 5v6c0 5.55 3.84 10.74 9 12c5.16-1.26 9-6.45 9-12V5zm0 6c1.4 0 2.8 1.1 2.8 2.5V11c.6 0 1.2.6 1.2 1.3v3.5c0 .6-.6 1.2-1.3 1.2H9.2c-.6 0-1.2-.6-1.2-1.3v-3.5c0-.6.6-1.2 1.2-1.2V9.5C9.2 8.1 10.6 7 12 7m0 1.2c-.8 0-1.5.5-1.5 1.3V11h3V9.5c0-.8-.7-1.3-1.5-1.3"/></svg></div></foreignObject><text class="node-label" x="44" y="30" dominant-baseline="central" text-anchor="start" font-size="13" font-weight="500" font-family="'Inter', system-ui, sans-serif" fill="#22c55e" letter-spacing="-0.01em">Login Success</text></g><g class="node-group" data-id="frontend.browser_login" transform="translate(346.5,212)" style="cursor: grab;"><path class="node-body" d="M16,0 L192,0 L176,72 L0,72 Z" fill="#fffbeb" stroke="#f59e0b" stroke-width="1" filter="url(#dropshadow)"/><rect class="sel-ring" x="-4" y="-4" width="200" height="80" rx="16" fill="none" stroke="#f59e0b" stroke-width="2" stroke-dasharray="5 3" opacity="0"/><foreignObject x="10" y="24" width="24" height="24"><div xmlns="http://www.w3.org/1999/xhtml" style="width: 24px; height: 24px; display: flex; align-items: center; justify-content: center; color: rgb(245, 158, 11);"><svg xmlns="http://www.w3.org/2000/svg" width="100%" height="100%" viewBox="0 0 24 24"><path fill="currentColor" d="M12 1L3 5v6c0 5.55 3.84 10.74 9 12c5.16-1.26 9-6.45 9-12V5zm0 6c1.4 0 2.8 1.1 2.8 2.5V11c.6 0 1.2.6 1.2 1.3v3.5c0 .6-.6 1.2-1.3 1.2H9.2c-.6 0-1.2-.6-1.2-1.3v-3.5c0-.6.6-1.2 1.2-1.2V9.5C9.2 8.1 10.6 7 12 7m0 1.2c-.8 0-1.5.5-1.5 1.3V11h3V9.5c0-.8-.7-1.3-1.5-1.3"/></svg></div></foreignObject><text class="node-label" x="44" y="30" dominant-baseline="central" text-anchor="start" font-size="13" font-weight="500" font-family="'Inter', system-ui, sans-serif" fill="#f59e0b" letter-spacing="-0.01em">Browser Login</text></g><g class="node-group" data-id="backend.auth_service" transform="translate(346.5,344)" style="cursor: grab;"><rect class="node-body" width="192" height="72" rx="12" fill="#faf5ff" stroke="#a855f7" stroke-width="1" filter="url(#dropshadow)"/><rect class="sel-ring" x="-4" y="-4" width="200" height="80" rx="16" fill="none" stroke="#a855f7" stroke-width="2" stroke-dasharray="5 3" opacity="0"/><rect x="0" y="14" width="3" height="44" rx="1.5" fill="#a855f7" opacity="0.85"/><foreignObject x="10" y="24" width="24" height="24"><div xmlns="http://www.w3.org/1999/xhtml" style="width: 24px; height: 24px; display: flex; align-items: center; justify-content: center; color: rgb(168, 85, 247);"><svg xmlns="http://www.w3.org/2000/svg" width="100%" height="100%" viewBox="0 0 24 24"><path fill="currentColor" d="M4 1h16a1 1 0 0 1 1 1v4a1 1 0 0 1-1 1H4a1 1 0 0 1-1-1V2a1 1 0 0 1 1-1m0 8h16a1 1 0 0 1 1 1v4a1 1 0 0 1-1 1H4a1 1 0 0 1-1-1v-4a1 1 0 0 1 1-1m0 8h16a1 1 0 0 1 1 1v4a1 1 0 0 1-1 1H4a1 1 0 0 1-1-1v-4a1 1 0 0 1 1-1M9 5h1V3H9zm0 8h1v-2H9zm0 8h1v-2H9zM5 3v2h2V3zm0 8v2h2v-2zm0 8v2h2v-2z"/></svg></div></foreignObject><text class="node-label" x="44" y="30" dominant-baseline="central" text-anchor="start" font-size="13" font-weight="500" font-family="'Inter', system-ui, sans-serif" fill="#a855f7" letter-spacing="-0.01em">Auth Service</text></g><g class="node-group" data-id="backend.valid_credentials" transform="translate(312,476)" style="cursor: grab;"><path class="node-body" d="M130.5,0 L261,61 L130.5,122 L0,61 Z" fill="#faf5ff" stroke="#a855f7" stroke-width="1" filter="url(#dropshadow)"/><rect class="sel-ring" x="-4" y="-4" width="269" height="130" rx="16" fill="none" stroke="#a855f7" stroke-width="2" stroke-dasharray="5 3" opacity="0"/><foreignObject x="119.5" y="42" width="22" height="22"><div xmlns="http://www.w3.org/1999/xhtml" style="width: 22px; height: 22px; display: flex; align-items: center; justify-content: center; color: rgb(168, 85, 247);"><svg xmlns="http://www.w3.org/2000/svg" width="100%" height="100%" viewBox="0 0 24 24"><path fill="currentColor" d="M4 1h16a1 1 0 0 1 1 1v4a1 1 0 0 1-1 1H4a1 1 0 0 1-1-1V2a1 1 0 0 1 1-1m0 8h16a1 1 0 0 1 1 1v4a1 1 0 0 1-1 1H4a1 1 0 0 1-1-1v-4a1 1 0 0 1 1-1m0 8h16a1 1 0 0 1 1 1v4a1 1 0 0 1-1 1H4a1 1 0 0 1-1-1v-4a1 1 0 0 1 1-1M9 5h1V3H9zm0 8h1v-2H9zm0 8h1v-2H9zM5 3v2h2V3zm0 8v2h2v-2zm0 8v2h2v-2z"/></svg></div></foreignObject><text class="node-label" x="130.5" y="74" dominant-baseline="central" text-anchor="middle" font-size="13" font-weight="500" font-family="'Inter', system-ui, sans-serif" fill="#a855f7" letter-spacing="-0.01em">Valid Credentials?</text></g><g class="node-group" data-id="storage.postgresql" transform="translate(80,790)" style="cursor: grab;"><rect class="node-body" x="0" y="12.959999999999999" width="192" height="46.08" fill="#f0fdfa" stroke="#14b8a6" stroke-width="1" filter="url(#dropshadow)"/><ellipse cx="96" cy="59.04" rx="96" ry="12.959999999999999" fill="#f0fdfa" stroke="#14b8a6" stroke-width="1" pointer-events="none"/><line x1="0" y1="12.959999999999999" x2="0" y2="59.04" stroke="#14b8a6" stroke-width="1" pointer-events="none"/><line x1="192" y1="12.959999999999999" x2="192" y2="59.04" stroke="#14b8a6" stroke-width="1" pointer-events="none"/><ellipse cx="96" cy="12.959999999999999" rx="96" ry="12.959999999999999" fill="#e9f6f3" stroke="#14b8a6" stroke-width="1" pointer-events="none"/><rect class="sel-ring" x="-4" y="-4" width="200" height="80" rx="16" fill="none" stroke="#14b8a6" stroke-width="2" stroke-dasharray="5 3" opacity="0"/><foreignObject x="10" y="24" width="24" height="24"><div xmlns="http://www.w3.org/1999/xhtml" style="width: 24px; height: 24px; display: flex; align-items: center; justify-content: center; color: rgb(20, 184, 166);"><svg xmlns="http://www.w3.org/2000/svg" width="100%" height="100%" viewBox="0 0 24 24"><path fill="currentColor" d="M12 3C7.58 3 4 4.79 4 7s3.58 4 8 4s8-1.79 8-4s-3.58-4-8-4M4 9v3c0 2.21 3.58 4 8 4s8-1.79 8-4V9c0 2.21-3.58 4-8 4s-8-1.79-8-4m0 5v3c0 2.21 3.58 4 8 4s8-1.79 8-4v-3c0 2.21-3.58 4-8 4s-8-1.79-8-4"/></svg></div></foreignObject><text class="node-label" x="44" y="30" dominant-baseline="central" text-anchor="start" font-size="13" font-weight="500" font-family="'Inter', system-ui, sans-serif" fill="#14b8a6" letter-spacing="-0.01em">PostgreSQL</text></g><g class="node-group" data-id="login_failed" transform="translate(677.4352722167969,605.994140625)" style="cursor: grab;"><path class="node-body" d="M36,0 L156,0 Q192,0 192,36 Q192,72 156,72 L36,72 Q0,72 0,36 Q0,0 36,0 Z" fill="#fee2e2" stroke="#dc2626" stroke-width="1" style="transition: filter 0.12s ease-out;"/><rect class="sel-ring" x="-4" y="-4" width="200" height="80" rx="16" fill="none" stroke="#dc2626" stroke-width="2" stroke-dasharray="5 3" opacity="0"/><foreignObject x="10" y="24" width="24" height="24"><div xmlns="http://www.w3.org/1999/xhtml" style="width: 24px; height: 24px; display: flex; align-items: center; justify-content: center; color: rgb(220, 38, 38);"><svg xmlns="http://www.w3.org/2000/svg" width="100%" height="100%" viewBox="0 0 24 24"><path fill="currentColor" d="M21.33 12.91c.09 1.55-.62 3.04-1.89 3.95l.77 1.49c.23.45.26.98.06 1.45c-.19.47-.58.84-1.06 1l-.79.25a1.69 1.69 0 0 1-1.86-.55L14.44 18c-.89-.15-1.73-.53-2.44-1.1c-.5.15-1 .23-1.5.23c-.88 0-1.76-.27-2.5-.79c-.53.16-1.07.23-1.62.22c-.79.01-1.57-.15-2.3-.45a4.1 4.1 0 0 1-2.43-3.61c-.08-.72.04-1.45.35-2.11c-.29-.75-.32-1.57-.07-2.33C2.3 7.11 3 6.32 3.87 5.82c.58-1.69 2.21-2.82 4-2.7c1.6-1.5 4.05-1.66 5.83-.37c.42-.11.86-.17 1.3-.17c1.36-.03 2.65.57 3.5 1.64c2.04.53 3.5 2.35 3.58 4.47c.05 1.11-.25 2.2-.86 3.13c.07.36.11.72.11 1.09m-5-1.41c.57.07 1.02.5 1.02 1.07a1 1 0 0 1-1 1h-.63c-.32.9-.88 1.69-1.62 2.29c.25.09.51.14.77.21c5.13-.07 4.53-3.2 4.53-3.25a2.59 2.59 0 0 0-2.69-2.49a1 1 0 0 1-1-1a1 1 0 0 1 1-1c1.23.03 2.41.49 3.33 1.3c.05-.29.08-.59.08-.89c-.06-1.24-.62-2.32-2.87-2.53c-1.25-2.96-4.4-1.32-4.4-.4c-.03.23.21.72.25.75a1 1 0 0 1 1 1c0 .55-.45 1-1 1c-.53-.02-1.03-.22-1.43-.56c-.48.31-1.03.5-1.6.56c-.57.05-1.04-.35-1.07-.9a.97.97 0 0 1 .88-1.1c.16-.02.94-.14.94-.77c0-.66.25-1.29.68-1.79c-.92-.25-1.91.08-2.91 1.29C6.75 5 6 5.25 5.45 7.2C4.5 7.67 4 8 3.78 9c1.08-.22 2.19-.13 3.22.25c.5.19.78.75.59 1.29c-.19.52-.77.78-1.29.59c-.73-.32-1.55-.34-2.3-.06c-.32.27-.32.83-.32 1.27c0 .74.37 1.43 1 1.83c.53.27 1.12.41 1.71.4q-.225-.39-.39-.81a1.038 1.038 0 0 1 1.96-.68c.4 1.14 1.42 1.92 2.62 2.05c1.37-.07 2.59-.88 3.19-2.13c.23-1.38 1.34-1.5 2.56-1.5m2 7.47l-.62-1.3l-.71.16l1 1.25zm-4.65-8.61a1 1 0 0 0-.91-1.03c-.71-.04-1.4.2-1.93.67c-.57.58-.87 1.38-.84 2.19a1 1 0 0 0 1 1c.57 0 1-.45 1-1c0-.27.07-.54.23-.76c.12-.1.27-.15.43-.15c.55.03 1.02-.38 1.02-.92"/></svg></div></foreignObject><text class="node-label" x="44" y="30" dominant-baseline="central" text-anchor="start" font-size="13" font-weight="500" font-family="'Inter', system-ui, sans-serif" fill="#dc2626" letter-spacing="-0.01em">Login Failed</text></g><g class="node-group" data-id="storage.redis_cache" transform="translate(21.526473999023438,501)" style="cursor: grab;"><rect class="node-body" x="0" y="12.959999999999999" width="192" height="46.08" fill="#f0fdfa" stroke="#14b8a6" stroke-width="1" style="transition: filter 0.12s ease-out;"/><ellipse cx="96" cy="59.04" rx="96" ry="12.959999999999999" fill="#f0fdfa" stroke="#14b8a6" stroke-width="1" pointer-events="none"/><line x1="0" y1="12.959999999999999" x2="0" y2="59.04" stroke="#14b8a6" stroke-width="1" pointer-events="none"/><line x1="192" y1="12.959999999999999" x2="192" y2="59.04" stroke="#14b8a6" stroke-width="1" pointer-events="none"/><ellipse cx="96" cy="12.959999999999999" rx="96" ry="12.959999999999999" fill="#e9f6f3" stroke="#14b8a6" stroke-width="1" pointer-events="none"/><rect class="sel-ring" x="-4" y="-4" width="200" height="80" rx="16" fill="none" stroke="#14b8a6" stroke-width="2" stroke-dasharray="5 3" opacity="0"/><foreignObject x="10" y="24" width="24" height="24"><div xmlns="http://www.w3.org/1999/xhtml" style="width: 24px; height: 24px; display: flex; align-items: center; justify-content: center; color: rgb(20, 184, 166);"><svg xmlns="http://www.w3.org/2000/svg" width="100%" height="100%" viewBox="0 0 24 24"><path fill="currentColor" d="M12 3C7.58 3 4 4.79 4 7s3.58 4 8 4s8-1.79 8-4s-3.58-4-8-4M4 9v3c0 2.21 3.58 4 8 4s8-1.79 8-4V9c0 2.21-3.58 4-8 4s-8-1.79-8-4m0 5v3c0 2.21 3.58 4 8 4s8-1.79 8-4v-3c0 2.21-3.58 4-8 4s-8-1.79-8-4"/></svg></div></foreignObject><text class="node-label" x="44" y="30" dominant-baseline="central" text-anchor="start" font-size="13" font-weight="500" font-family="'Inter', system-ui, sans-serif" fill="#14b8a6" letter-spacing="-0.01em">Redis Cache</text></g></g><g class="ghost"/><g class="ports"/></g></svg>